<?xml version="1.0" standalone="no"?>
<!DOCTYPE svg PUBLIC "-//W3C//DTD SVG 1.1//EN"
"http://www.w3.org/Graphics/SVG/1.1/DTD/svg11.dtd">

<svg width="306" height="136" view_box="0 0 306 136"
xmlns="http://www.w3.org/2000/svg"
xmlns:link="http://www.w3.org/1999/xlink">\n\n<desc>Généré par Mocodo 2.3.7 le Wed, 03 Mar 2021 08:05:48</desc>

<rect id="frame" x="0" y="0" width="306" height="136" fill="#ffffbf" stroke="none" stroke-width="0"/>

<!-- Association EST RELIE -->
<line x1="50" y1="68" x2="162" y2="68" stroke="#f46d43" stroke-width="2"/>
<text x="96" y="85.0" fill="#3288bd" font-family="Verdana" font-size="12">1,1</text>
<line x1="265" y1="68" x2="162" y2="68" stroke="#f46d43" stroke-width="2"/>
<text x="206" y="85.0" fill="#3288bd" font-family="Verdana" font-size="12">0,N</text>
<g id="association-EST RELIE">
	<path d="M 187 43 a 14 14 90 0 1 14 14 V 68 h -78 V 57 a 14 14 90 0 1 14 -14" fill="#fdae61" stroke="#fdae61" stroke-width="0"/>
	<path d="M 201 68.0 v 11 a 14 14 90 0 1 -14 14 H 137 a 14 14 90 0 1 -14 -14 V 68.0 H 78" fill="#fee08b" stroke="#fee08b" stroke-width="0"/>
	<rect x="123" y="43" width="78" height="50" fill="none" rx="14" stroke="#f46d43" stroke-width="2"/>
	<line x1="123" y1="68" x2="201" y2="68" stroke="#f46d43" stroke-width="1"/>
	<text x="130" y="60.7" fill="#000000" font-family="Verdana" font-size="12">belongs to</text>
</g>

<!-- Entity category -->
<g id="entity-category">
	<g id="frame-category">
		<rect x="233" y="26" width="64" height="25" fill="#abdda4" stroke="#abdda4" stroke-width="0"/>
		<rect x="233" y="51.0" width="64" height="59" fill="#e6f598" stroke="#e6f598" stroke-width="0"/>
		<rect x="233" y="26" width="64" height="84" fill="none" stroke="#66c2a5" stroke-width="2"/>
		<line x1="233" y1="51" x2="297" y2="51" stroke="#66c2a5" stroke-width="1"/>
	</g>
	<text x="238" y="43.7" fill="#000000" font-family="Verdana" font-size="12">categories</text>
	<text x="238" y="68.8" fill="#000000" font-family="Verdana" font-size="12">name</text>
	<line x1="238" y1="71" x2="250" y2="71" stroke="#000000" stroke-width="1"/>
	<text x="238" y="85.8" fill="#000000" font-family="Verdana" font-size="12">status</text>
</g>

<!-- Entity task -->
<g id="entity-task">
	<g id="frame-task">
		<rect x="9" y="9" width="82" height="25" fill="#abdda4" stroke="#abdda4" stroke-width="0"/>
		<rect x="9" y="34.0" width="82" height="93" fill="#e6f598" stroke="#e6f598" stroke-width="0"/>
		<rect x="9" y="9" width="82" height="118" fill="none" stroke="#66c2a5" stroke-width="2"/>
		<line x1="9" y1="34" x2="91" y2="34" stroke="#66c2a5" stroke-width="1"/>
	</g>
	<text x="37" y="26.7" fill="#000000" font-family="Verdana" font-size="12">tasks</text>
	<text x="14" y="51.7" fill="#000000" font-family="Verdana" font-size="12">title</text>
	<line x1="14" y1="54" x2="26" y2="54" stroke="#000000" stroke-width="1"/>
	<text x="14" y="68.8" fill="#000000" font-family="Verdana" font-size="12">status</text>
	<text x="14" y="85.8" fill="#000000" font-family="Verdana" font-size="12">completion</text>
</g>
</svg>
